#!OML:ASF H:\Terrain\Patient Classification 1\Walking\liu\liu.ASF
:FULLY-SPECIFIED
:DEGREES
421
root 15.138451 25.131599 35.057251 12.246195 0.510118 -7.091145
lowerback -13.161224 4.144710 1.836615
upperback -2.699190 5.235195 3.259605
thorax 4.473240 2.612595 2.925540
lowerneck -29.230198 -10.435215 -22.002600
upperneck 32.885101 -13.506660 21.416550
head 17.664150 -5.480205 9.516645
rclavicle -0.000000 -0.000000
rhumerus -54.271202 15.125700 -133.015198
rradius 49.547096
rwrist -21.154350
rhand -43.558800 -36.920551
rfingers 10.687531
rthumb -3.584400 -81.870003
lclavicle -0.000000 -0.000000
lhumerus -76.544098 -10.727400 138.869247
lradius 33.678299
lwrist 1.326927
lhand -10.780846 -33.814350
lfingers 10.687531
lthumb 28.036051 9.868725
rfemur 37.290451 4.541280 42.479401
rtibia 0.000000
rfoot 14.127014 5.865765
rtoes -33.461250
lfemur -66.194252 3.700545 -28.002451
ltibia 51.680099
lfoot 1.693785 11.669491
ltoes 2.881275
422
root 15.183451 25.163849 35.296349 12.186794 0.731901 -7.011300
lowerback -13.031160 3.959235 1.932600
upperback -2.836395 4.989315 3.176985
thorax 4.274970 2.491890 2.747370
lowerneck -29.588852 -10.616475 -21.897449
upperneck 33.455700 -13.751190 21.174150
head 17.976450 -5.594895 9.379920
rclavicle -0.000000 -0.000000
rhumerus -55.288200 15.022501 -133.498199
rradius 48.887249
rwrist -21.627899
rhand -42.850052 -38.731949
rfingers 10.687531
rthumb -2.899905 -83.688454
lclavicle -0.000000 -0.000000
lhumerus -75.692551 -9.767700 137.821350
lradius 32.837551
lwrist -0.344725
lhand -11.175705 -34.306950
lfingers 10.687531
lthumb 27.656250 9.412334
rfemur 33.302700 4.174290 42.007652
rtibia 8.666145
rfoot 14.372070 6.056895
rtoes -29.047800
lfemur -65.686798 3.187560 -28.076550
ltibia 52.574997
lfoot 0.357917 11.570745
ltoes 2.785740
423
root 15.238050 25.228199 35.550148 12.053385 0.693967 -6.164041
lowerback -12.644279 3.758820 1.214229
upperback -3.170355 4.808865 3.007290
thorax 3.689205 2.401515 2.922210
lowerneck -28.522049 -10.105696 -21.711599
upperneck 33.237152 -13.121175 20.907299
head 17.543251 -5.366715 9.353086
rclavicle -0.000000 -0.000000
rhumerus -56.666851 14.608335 -133.543503
rradius 48.448349
rwrist -20.855400
rhand -40.776299 -43.233150
rfingers 10.687531
rthumb -0.897044 -88.201500
lclavicle -0.000000 -0.000000
lhumerus -75.169495 -7.989975 136.445694
lradius 32.153400
lwrist -2.679690
lhand -9.946051 -33.574799
lfingers 10.687531
lthumb 28.839001 10.029660
rfemur 29.265450 4.012980 40.299450
rtibia 17.372999
rfoot 15.704700 4.742895
rtoes -11.632410
lfemur -64.626305 2.693400 -29.025301
ltibia 52.907101
lfoot -0.794439 11.427270
ltoes 5.150130
424
root 15.294300 25.274250 35.795551 11.823660 0.396077 -4.714890
lowerback -10.977961 3.878580 0.125787
upperback -4.458870 5.116425 2.479065
thorax 1.398733 2.572470 2.884605
lowerneck -26.684101 -9.888570 -22.117800
upperneck 33.415802 -13.006050 21.064501
head 17.254950 -5.402475 9.529680
rclavicle -0.000000 -0.000000
rhumerus -59.761200 13.182750 -133.561203
rradius 48.356400
rwrist -19.724550
rhand -39.120750 -47.507702
rfingers 10.687531
rthumb 0.702056 -92.476501
lclavicle -0.000000 -0.000000
lhumerus -76.186501 -7.679445 135.906601
lradius 31.656448
lwrist -3.787905
lhand -8.110636 -32.369099
lfingers 10.687531
lthumb 30.603302 11.053200
rfemur 26.180849 2.195700 37.795799
rtibia 24.214199
rfoot 17.095350 7.456095
rtoes -20.785200
lfemur -63.252602 2.245920 -30.645601
ltibia 52.883850
lfoot -1.762470 11.661571
ltoes 6.044595
425
root 15.345600 25.317301 36.040802 11.779470 -0.013353 -3.924030
lowerback -11.265915 4.003440 -0.336774
upperback -4.434225 5.315175 2.196165
thorax 1.566930 2.671665 2.883525
lowerneck -26.403599 -9.889890 -22.179449
upperneck 33.280800 -12.960014 20.867401
head 17.132549 -5.419185 9.466020
rclavicle 0.000000 -0.000000
rhumerus -60.599548 12.472529 -133.441803
rradius 47.691597
rwrist -19.391100
rhand -39.175800 -46.446297
rfingers 10.687531
rthumb 0.648790 -91.415253
lclavicle 0.000000 -0.000000
lhumerus -74.999252 -7.445700 135.487350
lradius 31.089151
lwrist -4.269885
lhand -7.515690 -31.945351
lfingers 10.687531
lthumb 31.175098 11.415091
rfemur 23.380800 1.268922 36.161850
rtibia 30.328051
rfoot 17.844749 8.979255
rtoes -24.303600
lfemur -61.988998 2.305320 -31.680901
ltibia 52.624500
lfoot -2.592060 11.793255
ltoes 3.324285
426
root 15.399000 25.355400 36.285900 11.790794 -0.548074 -3.211185
lowerback -11.836215 4.076820 -0.810420
upperback -3.563130 5.439555 2.008425
thorax 2.759340 2.719155 3.026295
lowerneck -28.491451 -10.148175 -22.113150
upperneck 33.347549 -12.985065 20.599350
head 17.558550 -5.376690 9.329010
rclavicle -0.000000 -0.000000
rhumerus -59.573399 12.416491 -133.190857
rradius 46.813801
rwrist -19.596750
rhand -39.992699 -43.425148
rfingers 10.687531
rthumb -0.140215 -88.394852
lclavicle -0.000000 -0.000000
lhumerus -72.126900 -6.781965 134.902954
lradius 30.525301
lwrist -5.012400
lhand -8.512665 -32.238449
lfingers 10.687531
lthumb 30.217049 11.224951
rfemur 20.802900 0.694401 34.645199
rtibia 35.990402
rfoot 19.243950 9.195645
rtoes -22.148701
lfemur -60.824398 2.696235 -32.750851
ltibia 52.400700
lfoot -3.397725 11.657310
ltoes 4.132485
427
root 15.444300 25.401600 36.507599 11.829750 -1.051080 -2.621205
lowerback -11.821185 4.016265 -1.308478
upperback -3.467460 5.399880 1.892355
thorax 2.827905 2.697555 3.183570
lowerneck -28.657499 -10.073685 -22.207050
upperneck 33.061348 -12.804270 20.638649
head 17.458199 -5.292510 9.378765
rclavicle -0.000000 0.000000
rhumerus -60.049355 12.762345 -133.424255
rradius 46.500301
rwrist -19.720350
rhand -39.429901 -44.612549
rfingers 10.687531
rthumb 0.403394 -89.581947
lclavicle -0.000000 0.000000
lhumerus -70.684196 -5.761050 134.208908
lradius 29.953051
lwrist -6.077505
lhand -10.725750 -33.464249
lfingers 10.687531
lthumb 28.089151 10.213711
rfemur 18.201750 0.355927 33.401699
rtibia 41.363400
rfoot 20.437349 9.896580
rtoes -22.548000
lfemur -59.792702 3.094275 -33.624603
ltibia 52.217102
lfoot -4.251135 11.499840
ltoes 7.437000
428
root 15.478950 25.447350 36.716400 11.955225 -1.444062 -2.414835
lowerback -11.484105 3.987870 -1.426196
upperback -3.905505 5.374710 1.786860
thorax 2.190045 2.694825 3.104790
lowerneck -28.257900 -9.842295 -21.733650
upperneck 33.266102 -12.535740 20.048550
head 17.353951 -5.212530 9.121409
rclavicle 0.000000 -0.000000
rhumerus -61.273052 13.120365 -134.039246
rradius 46.036201
rwrist -20.014500
rhand -39.382351 -46.484100
rfingers 10.687531
rthumb 0.449336 -91.453346
lclavicle 0.000000 -0.000000
lhumerus -70.196701 -5.244840 133.651199
lradius 29.505001
lwrist -6.886470
lhand -12.052216 -34.436699
lfingers 10.687531
lthumb 26.812950 9.361006
rfemur 15.561150 0.244683 32.732101
rtibia 46.453350
rfoot 20.152500 12.132960
rtoes -27.708149
lfemur -58.932152 3.540975 -34.032600
ltibia 51.999149
lfoot -5.111760 11.342956
ltoes 7.881780
429
root 15.517350 25.488150 36.937649 11.945250 -1.794480 -1.985130
lowerback -11.288355 3.989490 -1.680135
upperback -4.443150 5.398440 1.664895
thorax 1.518390 2.718375 3.093945
lowerneck -27.328800 -9.669390 -21.543751
upperneck 33.621750 -12.361561 19.498800
head 17.236351 -5.213955 8.924040
rclavicle -0.000000 -0.000000
rhumerus -62.814896 13.275209 -134.459702
rradius 45.333450
rwrist -20.250151
rhand -41.343147 -45.334198
rfingers 10.687531
rthumb -1.444402 -90.300598
lclavicle -0.000000 -0.000000
lhumerus -70.266899 -5.014950 133.405807
lradius 29.383350
lwrist -7.304460
lhand -12.981480 -35.257050
lfingers 10.687531
lthumb 25.918800 8.620649
rfemur 13.253820 0.087701 31.815750
rtibia 51.320103
rfoot 21.104549 12.128189
rtoes -26.296200
lfemur -57.784950 3.848460 -34.666649
ltibia 51.617554
lfoot -5.890140 11.303040
ltoes 7.911345
430
root 15.558451 25.537350 37.151699 11.932110 -2.179305 -1.357139
lowerback -10.814445 4.027035 -2.047830
upperback -5.183985 5.474355 1.441553
thorax 0.480636 2.775180 3.024060
lowerneck -25.428150 -9.378075 -22.058701
upperneck 33.298798 -12.191101 20.098049
head 16.765951 -5.181870 9.280020
rclavicle -0.000000 -0.000000
rhumerus -64.822952 12.900061 -134.660400
rradius 45.129002
rwrist -19.748249
rhand -40.593300 -44.697899
rfingers 10.687531
rthumb -0.720302 -89.666702
lclavicle -0.000000 -0.000000
lhumerus -70.560753 -4.974645 133.220856
lradius 29.344351
lwrist -7.481834
lhand -14.108820 -36.329552
lfingers 10.687531
lthumb 24.833549 7.641060
rfemur 10.937745 0.022113 30.773701
rtibia 55.876648
rfoot 24.450600 8.237580
rtoes -16.909050
lfemur -56.580448 4.094745 -35.509651
ltibia 51.126602
lfoot -6.548580 11.378235
ltoes 9.155430
431
root 15.600750 25.590000 37.362297 11.818049 -2.700420 -0.424129
lowerback -9.798030 4.073040 -2.713020
upperback -6.058065 5.564265 1.114950
thorax -1.008663 2.851140 2.979300
lowerneck -23.913300 -8.893755 -22.292250
upperneck 33.371101 -11.748765 20.457901
head 16.444351 -5.016510 9.549105
rclavicle 0.000000 0.000000
rhumerus -66.947403 12.884430 -135.133957
rradius 45.182701
rwrist -19.625549
rhand -39.564598 -44.226753
rfingers 10.687531
rthumb 0.273279 -89.196297
lclavicle 0.000000 0.000000
lhumerus -70.831650 -4.972605 133.041748
lradius 29.162998
lwrist -7.505730
lhand -13.818840 -36.018898
lfingers 10.687531
lthumb 25.112701 7.928295
rfemur 8.582385 -0.185603 29.392498
rtibia 60.121346
rfoot 26.839651 5.987805
rtoes -13.474710
lfemur -55.230301 4.663710 -36.798450
ltibia 50.579399
lfoot -7.242825 11.257996
ltoes 7.708050
432
root 15.647850 25.637249 37.584602 11.709015 -3.058680 0.052999
lowerback -9.698700 4.024740 -2.906940
upperback -6.064410 5.508210 1.052781
thorax -1.075967 2.826495 3.014865
lowerneck -24.203550 -8.777745 -22.554298
upperneck 33.769951 -11.495775 20.419800
head 16.615499 -4.919685 9.636660
rclavicle 0.000000 0.000000
rhumerus -67.390800 13.935946 -135.670197
rradius 44.778297
rwrist -20.500950
rhand -41.752350 -40.955700
rfingers 10.687531
rthumb -1.839720 -85.919998
lclavicle 0.000000 0.000000
lhumerus -69.704697 -4.418430 132.793198
lradius 29.000999
lwrist -7.934475
lhand -14.731845 -36.262951
lfingers 10.687531
lthumb 24.233700 7.757145
rfemur 6.198180 -0.563430 28.569450
rtibia 64.317902
rfoot 27.910648 6.430634
rtoes -17.789101
lfemur -53.862000 5.314575 -37.642349
ltibia 50.011200
lfoot -7.867365 10.864665
ltoes 5.116545
